<?xml version="1.0" encoding="utf-8"?>
<!-- Generator: Adobe Illustrator 19.2.1, SVG Export Plug-In . SVG Version: 6.00 Build 0)  -->
<svg version="1.1" id="Layer_1" xmlns="http://www.w3.org/2000/svg" xmlns:xlink="http://www.w3.org/1999/xlink" x="0px" y="0px"
	 viewBox="0 0 72 72" style="enable-background:new 0 0 72 72;" xml:space="preserve">
<style type="text/css">
	.st0{fill:#9E1F63;}
</style>
<path class="st0" d="M36,0C16.1,0,0,16.1,0,36s16.1,36,36,36s36-16.1,36-36S55.9,0,36,0z M36.7,49.5c0,4.4-3.6,8-8,8h-1.2
	c-4.4,0-8-3.6-8-8v-1.2c0-4.4,3.6-8,8-8h1.2c4.4,0,7.9,3.6,7.9,8V49.5z M36.7,23.7c0,4.4-3.6,7.9-8,7.9h-1.2c-4.4,0-8-3.6-8-8v-1.2
	c0-4.4,3.6-7.9,8-7.9h1.2c4.4,0,7.9,3.6,7.9,7.9V23.7z M60.4,36.7c0,4.4-3.6,8-8,8h-1.2c-4.4,0-8-3.6-8-8v-1.2c0-4.4,3.6-8,8-8h1.2
	c4.4,0,8,3.6,8,8V36.7z"/>
</svg>
