<?xml version="1.0" standalone="no"?>
<!DOCTYPE svg PUBLIC "-//W3C//DTD SVG 20010904//EN"
 "http://www.w3.org/TR/2001/REC-SVG-20010904/DTD/svg10.dtd">
<svg version="1.0" xmlns="http://www.w3.org/2000/svg"
 width="700.000000pt" height="700.000000pt" viewBox="0 0 700.000000 700.000000"
 preserveAspectRatio="xMidYMid meet">
<metadata>
Created by potrace 1.11, written by Peter Selinger 2001-2013
</metadata>
<g transform="translate(0.000000,700.000000) scale(0.100000,-0.100000)"
fill="#000000" stroke="none">
<path d="M6435 4350 c-11 -4 -38 -6 -61 -3 -32 4 -42 2 -47 -11 -6 -14 -10
-14 -26 -4 -23 14 -26 12 -36 -21 -7 -22 -5 -23 18 -17 17 4 27 1 30 -8 7 -18
-23 -44 -45 -41 -12 2 -18 -3 -18 -16 0 -11 7 -19 16 -19 10 0 12 -5 7 -12
-13 -21 -14 -50 -2 -64 6 -7 8 -18 4 -23 -9 -16 14 -51 34 -51 27 0 114 -28
135 -43 11 -8 16 -19 12 -25 -4 -7 -22 -1 -53 18 -56 36 -63 37 -55 8 3 -14 2
-19 -6 -14 -7 4 -12 14 -12 22 0 8 -4 13 -9 10 -13 -9 -2 -66 20 -102 10 -17
28 -61 39 -97 11 -36 29 -72 40 -80 12 -8 16 -18 10 -26 -10 -18 28 -84 45
-77 7 2 15 -4 18 -15 3 -11 14 -19 26 -19 24 0 27 10 9 28 -9 9 -8 12 6 12 15
0 17 7 12 50 -3 28 -8 55 -11 60 -3 4 -1 20 5 35 7 20 7 37 -2 61 -9 26 -9 39
0 59 10 22 10 33 -2 57 -13 25 -13 30 0 35 19 7 18 23 -1 23 -8 0 -24 9 -35
20 -11 11 -20 17 -20 13 0 -3 -8 1 -19 11 -10 9 -25 14 -35 10 -9 -3 -16 -1
-16 5 0 6 14 11 31 11 17 0 28 4 24 10 -3 6 -15 10 -26 10 -10 0 -19 4 -19 9
0 5 -11 9 -25 9 -14 0 -32 5 -40 12 -18 15 -20 42 -2 39 40 -5 66 2 61 16 -9
23 11 18 55 -12 40 -28 51 -43 31 -43 -5 0 -10 -13 -10 -30 0 -41 25 -39 35 3
16 68 0 99 -57 112 -16 4 -28 13 -28 21 0 19 19 18 41 -2 10 -9 24 -14 31 -11
8 4 5 8 -9 12 -27 8 -27 9 -11 35 23 37 -13 69 -57 50z m-50 -56 c-14 -21 -15
-28 -4 -35 20 -12 7 -18 -19 -8 -18 7 -22 14 -17 31 11 34 37 60 48 49 7 -7 4
-19 -8 -37z m43 4 c-6 -18 -28 -21 -28 -4 0 9 7 16 16 16 9 0 14 -5 12 -12z
m-112 -105 c-10 -10 -19 5 -10 18 6 11 8 11 12 0 2 -7 1 -15 -2 -18z m37 -84
c-4 -4 -21 -11 -38 -15 l-30 -7 24 26 c19 21 27 24 38 15 8 -6 10 -15 6 -19z
m62 -149 c-3 -5 -11 -10 -16 -10 -6 0 -7 5 -4 10 3 6 11 10 16 10 6 0 7 -4 4
-10z m51 -65 c16 -8 22 -15 13 -15 -8 0 -24 7 -35 15 -25 19 -14 19 22 0z m44
-55 c0 -5 -4 -10 -10 -10 -5 0 -10 5 -10 10 0 6 5 10 10 10 6 0 10 -4 10 -10z"/>
<path d="M6141 4297 c-6 -12 -13 -35 -15 -51 -9 -84 76 -367 178 -591 13 -27
26 -60 30 -72 4 -13 13 -23 19 -23 28 0 57 13 57 25 0 14 -86 235 -127 325
-36 80 -77 212 -99 318 -10 50 -21 92 -24 92 -4 0 -12 -10 -19 -23z"/>
<path d="M6230 4300 c0 -5 5 -10 10 -10 6 0 10 5 10 10 0 6 -4 10 -10 10 -5 0
-10 -4 -10 -10z"/>
<path d="M5503 4264 c-3 -9 -11 -11 -21 -6 -10 5 -23 7 -29 6 -7 -1 -27 -2
-44 -3 -26 -1 -30 -4 -26 -21 6 -24 -2 -25 -29 -5 -28 21 -65 20 -57 -2 5 -15
3 -15 -9 1 -14 17 -19 18 -46 7 -19 -8 -55 -11 -92 -8 -46 3 -60 1 -60 -9 0
-16 -26 -19 -35 -4 -8 12 -52 13 -59 1 -3 -5 5 -12 19 -15 35 -9 31 -30 -7
-41 -25 -8 -32 -16 -35 -40 -2 -16 -8 -58 -14 -92 -6 -35 -9 -70 -5 -78 3 -9
-1 -27 -10 -40 -9 -13 -15 -37 -13 -52 1 -15 -5 -44 -14 -64 -9 -19 -17 -54
-20 -77 -4 -40 -3 -42 25 -42 15 0 28 -4 28 -8 0 -4 -12 -8 -27 -7 -24 0 -28
-5 -40 -55 -14 -58 -20 -85 -28 -137 -6 -33 -7 -34 -68 -37 -10 -1 -22 -8 -27
-16 -7 -10 -10 -11 -10 -2 0 6 -9 12 -21 12 -15 0 -19 -5 -16 -17 3 -10 11
-43 17 -73 7 -30 18 -64 25 -76 8 -12 11 -36 8 -57 -4 -36 -4 -37 27 -37 17 0
44 7 61 15 16 9 35 13 41 9 13 -8 123 -8 136 0 8 5 118 15 227 20 28 2 62 4
76 5 46 2 49 71 3 71 -13 0 -24 5 -24 11 0 6 9 9 20 6 28 -7 27 36 -1 62 -17
16 -19 23 -10 40 7 12 8 21 2 21 -5 0 -11 10 -13 23 -2 16 -9 22 -25 21 -13 0
-23 3 -23 7 0 4 -12 4 -27 0 -16 -4 -41 -7 -58 -6 -29 0 -30 2 -29 45 1 75 11
100 40 100 17 0 28 7 31 20 6 23 7 23 53 9 48 -14 97 -14 115 1 8 7 24 10 35
7 11 -3 22 -1 25 4 3 4 20 0 38 -9 32 -18 98 -124 85 -137 -7 -7 -33 -13 -63
-14 -11 -1 -33 -17 -49 -37 -28 -35 -28 -36 -8 -57 15 -17 17 -29 11 -50 -8
-30 11 -89 33 -103 17 -11 128 -14 128 -4 0 4 -6 10 -12 13 -8 3 -2 9 13 17
22 10 32 9 57 -4 38 -20 61 -20 86 -1 17 13 21 12 32 -3 12 -16 15 -16 45 1
19 11 36 14 43 9 14 -12 129 -6 154 7 11 6 36 8 56 4 30 -5 36 -3 36 13 0 14
3 15 12 6 14 -14 54 -16 63 -3 3 6 -4 19 -16 30 -17 15 -19 24 -11 34 8 10 7
20 -3 41 -12 23 -22 76 -24 134 -1 11 -15 12 -65 7 l-63 -7 -44 52 c-24 29
-43 60 -41 70 2 10 -5 19 -16 22 -10 3 -19 12 -19 21 0 8 -24 51 -54 95 -45
67 -58 80 -80 80 -14 -1 -31 2 -38 6 -6 4 -11 3 -11 -3 0 -6 -7 -8 -15 -5 -8
4 -15 13 -15 21 0 11 9 13 47 7 l46 -7 -26 34 c-14 19 -39 62 -57 97 -17 34
-36 62 -42 62 -6 0 -21 -8 -32 -17 -19 -16 -19 -16 -7 -1 7 9 10 21 7 27 -3 5
0 11 6 13 9 3 4 16 -15 41 -15 19 -27 39 -27 42 0 4 -9 19 -20 35 -23 32 -59
45 -67 24z m21 -105 c-7 -11 -34 -12 -34 -1 0 14 11 21 26 15 8 -3 11 -9 8
-14z m-309 -21 c-19 -11 -30 -5 -21 11 4 6 14 7 22 4 15 -5 14 -7 -1 -15z m67
7 c13 -17 9 -45 -7 -45 -8 0 -15 3 -15 8 0 4 -3 17 -6 30 -5 16 -3 22 7 20 8
-2 17 -7 21 -13z m88 -51 c0 -8 -5 -12 -10 -9 -6 4 -8 11 -5 16 9 14 15 11 15
-7z m-357 -22 c18 -20 13 -32 -11 -32 -8 0 -12 6 -9 14 3 7 0 19 -6 25 -7 7
-7 11 -1 11 6 0 18 -8 27 -18z m187 -35 c0 -5 16 1 36 13 36 21 64 21 64 0 0
-5 -7 -10 -15 -10 -19 0 -19 -26 0 -34 8 -3 26 -30 41 -59 14 -30 34 -64 45
-76 11 -12 17 -26 14 -32 -4 -6 3 -13 15 -16 14 -4 20 -12 17 -22 -2 -9 2 -23
10 -30 8 -7 12 -15 9 -18 -3 -3 -43 -9 -88 -14 -46 -4 -94 -10 -108 -13 -33
-8 -63 3 -56 19 3 8 0 16 -7 19 -9 3 -9 7 1 14 7 5 15 26 18 48 3 21 11 67 19
102 19 79 19 92 1 92 -8 0 -28 11 -43 25 l-28 25 28 -11 c15 -7 27 -16 27 -22z
m430 -40 c0 -7 -10 -13 -22 -14 -22 -2 -22 -1 -4 13 24 17 26 17 26 1z m-540
-57 c0 -5 -4 -10 -10 -10 -5 0 -10 5 -10 10 0 6 5 10 10 10 6 0 10 -4 10 -10z
m584 -66 c26 -10 18 -24 -14 -24 -22 0 -28 4 -24 15 7 16 14 18 38 9z m-149
-24 c3 -5 -1 -10 -9 -10 -9 0 -16 5 -16 10 0 6 4 10 9 10 6 0 13 -4 16 -10z
m135 -30 c0 -5 -5 -10 -11 -10 -5 0 -7 5 -4 10 3 6 8 10 11 10 2 0 4 -4 4 -10z
m131 -36 c33 -18 33 -19 9 -22 -27 -3 -103 31 -93 42 9 9 46 0 84 -20z m-721
-20 c0 -7 6 -14 13 -17 6 -2 9 -8 4 -12 -4 -5 -16 1 -27 13 -24 25 -25 29 -5
29 8 0 15 -6 15 -13z m-100 -24 c0 -5 -4 -10 -10 -10 -5 0 -10 5 -10 10 0 6 5
10 10 10 6 0 10 -4 10 -10z m100 -42 c0 -5 -9 -4 -20 2 -21 11 -25 22 -13 34
8 7 33 -21 33 -36z m55 22 c3 -5 -1 -10 -9 -10 -9 0 -16 5 -16 10 0 6 4 10 9
10 6 0 13 -4 16 -10z m275 -21 c0 -6 -4 -7 -10 -4 -5 3 -10 11 -10 16 0 6 5 7
10 4 6 -3 10 -11 10 -16z m298 9 c-6 -18 -28 -21 -28 -4 0 9 7 16 16 16 9 0
14 -5 12 -12z m62 2 c0 -5 -4 -10 -10 -10 -5 0 -10 5 -10 10 0 6 5 10 10 10 6
0 10 -4 10 -10z m-723 -30 c30 -24 63 -26 63 -5 0 17 25 20 35 5 3 -5 -1 -10
-9 -10 -20 0 -20 -9 1 -32 17 -19 8 -24 -17 -8 -9 5 -19 5 -27 -1 -17 -14 -44
2 -66 40 -21 36 -15 39 20 11z m-7 -75 c0 -8 -6 -15 -14 -15 -8 0 -16 7 -20
15 -4 10 1 15 14 15 11 0 20 -7 20 -15z m684 -16 c-6 -11 -24 -2 -24 11 0 5 7
7 15 4 8 -4 12 -10 9 -15z m223 -15 c-3 -3 -12 -4 -19 -1 -8 3 -5 6 6 6 11 1
17 -2 13 -5z m-219 -32 c2 -7 -3 -12 -12 -12 -9 0 -16 7 -16 16 0 17 22 14 28
-4z m-638 -43 c0 -11 -29 -19 -34 -10 -3 5 -3 10 -1 13 8 7 35 5 35 -3z m520
-29 c0 -5 -4 -10 -10 -10 -5 0 -10 5 -10 10 0 6 5 10 10 10 6 0 10 -4 10 -10z
m-710 -16 c0 -2 -7 -4 -15 -4 -8 0 -15 4 -15 10 0 5 7 7 15 4 8 -4 15 -8 15
-10z m77 -14 c1 -11 -4 -20 -12 -20 -8 0 -11 7 -8 20 3 11 8 20 12 20 4 0 7
-9 8 -20z m161 -16 c12 -8 22 -11 22 -6 0 6 7 13 16 16 11 4 14 0 12 -16 -2
-16 2 -23 15 -23 10 0 22 -7 28 -15 8 -11 12 -12 16 -2 5 12 45 17 55 7 3 -4
1 -17 -6 -30 -11 -26 -30 -32 -41 -15 -11 18 -139 72 -143 60 -4 -11 -31 17
-32 33 0 13 35 8 58 -9z m843 -36 c16 -5 29 -14 29 -19 0 -5 -10 -5 -24 1 -13
5 -26 6 -30 3 -9 -9 14 -43 29 -43 8 0 15 -4 15 -10 0 -17 -17 -11 -65 21 -47
32 -50 38 -18 44 10 1 17 8 15 15 -2 7 0 20 4 29 6 13 8 11 12 -7 2 -15 14
-27 33 -34z m139 12 c0 -5 -5 -10 -11 -10 -5 0 -7 5 -4 10 3 6 8 10 11 10 2 0
4 -4 4 -10z m-1180 -16 c0 -8 -4 -12 -10 -9 -5 3 -10 10 -10 16 0 5 5 9 10 9
6 0 10 -7 10 -16z m84 -10 c3 -8 -1 -14 -8 -14 -16 0 -38 24 -30 33 9 9 32 -3
38 -19z m1133 -17 c-2 -6 -17 -11 -33 -11 -19 0 -31 -6 -37 -19 -6 -16 -10
-17 -23 -6 -14 12 -14 14 5 21 12 4 21 12 21 17 0 5 16 9 36 9 21 0 34 -4 31
-11z m-1317 -7 c0 -5 -2 -10 -4 -10 -3 0 -8 5 -11 10 -3 6 -1 10 4 10 6 0 11
-4 11 -10z m370 -26 c0 -8 -7 -14 -15 -14 -15 0 -21 21 -9 33 10 9 24 -2 24
-19z m-130 6 c0 -5 -2 -10 -4 -10 -3 0 -8 5 -11 10 -3 6 -1 10 4 10 6 0 11 -4
11 -10z m65 -10 c10 -11 15 -20 11 -20 -4 0 -19 9 -33 20 -17 13 -20 20 -11
20 8 0 23 -9 33 -20z m625 11 c0 -17 -18 -21 -24 -6 -3 9 0 15 9 15 8 0 15 -4
15 -9z m-500 -21 c0 -5 -5 -10 -11 -10 -5 0 -7 5 -4 10 3 6 8 10 11 10 2 0 4
-4 4 -10z m310 0 c0 -5 -4 -10 -10 -10 -5 0 -10 5 -10 10 0 6 5 10 10 10 6 0
10 -4 10 -10z m-765 -10 c3 -5 2 -10 -4 -10 -5 0 -13 5 -16 10 -3 6 -2 10 4
10 5 0 13 -4 16 -10z m75 0 c0 -5 -4 -10 -10 -10 -5 0 -10 5 -10 10 0 6 5 10
10 10 6 0 10 -4 10 -10z m110 -60 c0 -5 -4 -10 -10 -10 -5 0 -10 5 -10 10 0 6
5 10 10 10 6 0 10 -4 10 -10z"/>
<path d="M5256 3869 c-13 -67 -9 -79 28 -79 19 0 37 4 41 9 6 10 -45 101 -56
101 -4 0 -9 -14 -13 -31z"/>
<path d="M4666 4193 c-4 -5 -35 -9 -69 -9 -120 -3 -262 -15 -270 -23 -5 -5
-27 -6 -49 -4 -28 4 -38 2 -34 -6 4 -6 14 -11 22 -11 8 0 14 -4 14 -10 0 -5
-9 -10 -19 -10 -12 0 -21 -9 -25 -26 -6 -24 -27 -31 -28 -9 0 6 -4 15 -10 22
-12 15 -2 33 19 33 21 0 11 10 -15 15 -14 2 -22 -3 -26 -18 -5 -17 -8 -19 -15
-8 -9 14 -31 7 -31 -11 0 -5 12 -24 26 -41 21 -25 23 -32 11 -39 -22 -12 1
-60 26 -52 10 3 29 -4 45 -17 l27 -22 -30 5 c-16 3 -39 9 -49 13 -17 7 -18 5
-12 -21 9 -36 24 -46 56 -38 28 8 37 7 92 -2 21 -3 45 -3 54 0 15 6 15 8 -1
26 -18 20 -18 20 16 9 46 -16 46 -16 19 -44 -18 -19 -26 -22 -37 -14 -7 6 -14
10 -14 8 -6 -18 -5 -57 2 -71 7 -13 4 -23 -11 -38 -11 -11 -18 -26 -14 -32 8
-13 10 -75 2 -83 -2 -3 -3 -18 0 -34 3 -20 8 -28 18 -24 8 3 14 0 14 -6 0 -7
14 -10 38 -8 20 3 43 2 50 0 20 -8 14 -22 -10 -21 -42 2 -58 -2 -58 -13 0 -19
-44 -54 -63 -51 -19 4 -25 -32 -7 -43 6 -3 2 -21 -10 -43 -11 -20 -20 -42 -20
-49 0 -25 -15 -12 -42 35 -32 57 -74 102 -97 102 -14 1 -14 2 2 14 21 16 11
27 -50 51 -46 19 -59 41 -18 31 14 -4 25 -4 25 0 0 12 -61 94 -70 94 -6 0 -10
6 -10 13 0 7 -21 43 -46 80 -25 38 -43 71 -41 74 3 2 26 6 51 8 25 2 50 7 56
10 15 9 12 41 -5 55 -9 7 -13 21 -10 31 4 11 2 19 -3 19 -5 0 -14 11 -22 24
-7 14 -18 22 -24 20 -6 -2 -17 5 -24 16 -7 12 -8 20 -2 20 5 0 10 5 10 12 0 6
-3 8 -6 5 -4 -3 -16 -1 -28 5 -11 7 -28 11 -38 10 -9 -2 -19 1 -21 5 -7 11
-155 3 -412 -23 -33 -3 -69 -6 -79 -7 -27 -3 -39 -52 -21 -87 8 -15 11 -30 8
-34 -4 -3 -2 -6 3 -6 5 0 10 -21 12 -46 1 -25 7 -54 13 -65 13 -25 46 -24 54
1 7 22 20 26 30 9 4 -6 13 -8 21 -5 9 4 30 -20 61 -71 91 -144 166 -254 199
-290 18 -20 36 -49 39 -65 4 -16 22 -44 40 -62 18 -18 42 -54 54 -80 30 -70
59 -106 84 -106 14 0 18 -3 10 -8 -9 -6 -9 -13 0 -32 14 -28 51 -35 71 -14 9
9 24 10 49 4 20 -4 38 -5 41 -2 3 2 37 4 76 4 38 0 72 3 75 8 3 5 12 7 20 3 9
-3 21 -1 28 4 6 5 36 9 64 9 29 -1 53 2 53 7 0 4 6 7 14 7 20 0 23 6 40 91 24
122 26 139 11 139 -24 0 -28 21 -6 36 12 8 21 26 21 39 0 13 5 27 11 30 5 4 8
12 6 18 -2 7 1 31 8 53 8 28 9 47 2 59 -6 12 -6 20 1 24 6 4 13 25 16 46 18
140 55 251 81 241 8 -3 17 -1 20 4 4 6 14 10 25 10 15 0 17 6 14 46 -3 25 -12
60 -21 78 -18 34 -24 57 -23 99 0 26 -9 34 -24 20z m-141 -93 c4 -6 -5 -10
-20 -10 -15 0 -24 4 -20 10 3 6 12 10 20 10 8 0 17 -4 20 -10z m-658 -25 c4
-12 -52 -36 -61 -27 -4 3 2 14 11 24 17 19 44 21 50 3z m447 -21 c3 -8 0 -14
-7 -14 -14 0 -37 20 -37 31 0 12 38 -2 44 -17z m-374 6 c0 -5 -4 -10 -10 -10
-5 0 -10 5 -10 10 0 6 5 10 10 10 6 0 10 -4 10 -10z m290 -10 c0 -5 -4 -10 -9
-10 -6 0 -13 5 -16 10 -3 6 1 10 9 10 9 0 16 -4 16 -10z m-513 -6 c-3 -3 -12
-4 -19 -1 -8 3 -5 6 6 6 11 1 17 -2 13 -5z m-157 -14 c0 -5 -4 -10 -10 -10 -5
0 -10 5 -10 10 0 6 5 10 10 10 6 0 10 -4 10 -10z m120 -21 c0 -6 -4 -7 -10 -4
-5 3 -10 11 -10 16 0 6 5 7 10 4 6 -3 10 -11 10 -16z m750 11 c0 -5 -7 -10
-15 -10 -8 0 -15 5 -15 10 0 6 7 10 15 10 8 0 15 -4 15 -10z m-803 -6 c-3 -3
-12 -4 -19 -1 -8 3 -5 6 6 6 11 1 17 -2 13 -5z m321 -40 c20 -13 30 -34 17
-34 -3 0 -29 13 -57 29 -41 24 -56 28 -76 20 -16 -6 -29 -6 -35 0 -11 11 -2
16 38 24 21 4 76 -15 113 -39z m710 29 c-4 -20 -39 -25 -45 -6 -4 10 11 18 40
22 5 0 7 -7 5 -16z m-1068 -24 c0 -4 -4 -10 -10 -14 -5 -3 -7 -12 -3 -20 3 -8
1 -15 -5 -15 -9 0 -23 46 -16 53 7 7 34 4 34 -4z m270 -9 c0 -5 -2 -10 -4 -10
-3 0 -8 5 -11 10 -3 6 -1 10 4 10 6 0 11 -4 11 -10z m-360 -4 c0 -2 -7 -6 -15
-10 -8 -3 -15 -1 -15 4 0 6 7 10 15 10 8 0 15 -2 15 -4z m223 -33 c-7 -2 -19
-2 -25 0 -7 3 -2 5 12 5 14 0 19 -2 13 -5z m-73 -23 c0 -14 -15 -19 -29 -10
-17 10 -5 31 14 23 8 -3 15 -9 15 -13z m270 10 c0 -5 -4 -10 -10 -10 -5 0 -10
5 -10 10 0 6 5 10 10 10 6 0 10 -4 10 -10z m-100 -20 c0 -5 -7 -10 -15 -10 -8
0 -15 5 -15 10 0 6 7 10 15 10 8 0 15 -4 15 -10z m640 -30 c13 -8 13 -10 -2
-10 -9 0 -20 5 -23 10 -8 13 5 13 25 0z m-738 -42 c-9 -9 -15 -9 -24 0 -9 9
-7 12 12 12 19 0 21 -3 12 -12z m701 -12 c4 -10 1 -13 -9 -9 -7 3 -14 9 -14
14 0 14 17 10 23 -5z m-733 -31 c-14 -17 -50 -21 -50 -5 0 6 11 10 25 10 14 0
25 5 25 12 0 6 3 8 6 5 4 -4 1 -13 -6 -22z m135 -36 c5 -5 0 -9 -12 -9 -28 0
-53 10 -53 21 0 11 50 1 65 -12z m91 -52 c3 -3 -3 -12 -12 -22 -16 -15 -18
-15 -26 -1 -5 9 -16 16 -24 16 -8 0 -12 5 -9 10 6 10 61 7 71 -3z m518 -36
c16 -18 16 -19 -16 -16 -18 2 -39 4 -45 4 -24 2 -13 20 15 24 15 2 27 5 28 6
0 0 9 -7 18 -18z m-654 -5 c0 -11 -19 -15 -25 -6 -3 5 1 10 9 10 9 0 16 -2 16
-4z m145 -47 c8 -25 3 -31 -19 -23 -20 8 -21 44 -2 44 8 0 18 -9 21 -21z m72
6 c0 -8 -4 -15 -9 -15 -10 0 -11 14 -1 23 9 10 10 9 10 -8z m-163 -30 c-4 -8
-10 -15 -15 -15 -4 0 -6 7 -3 15 4 8 10 15 15 15 4 0 6 -7 3 -15z m166 -5 c0
-5 -5 -10 -11 -10 -5 0 -7 5 -4 10 3 6 8 10 11 10 2 0 4 -4 4 -10z m0 -40 c19
-12 13 -16 -32 -23 -23 -3 -38 -2 -38 4 0 6 4 8 9 5 5 -3 11 1 15 9 6 17 24
19 46 5z m109 -129 c9 -15 7 -20 -9 -24 -11 -3 -20 -1 -20 4 0 5 5 9 11 9 8 0
8 5 -1 15 -8 10 -9 15 -2 15 6 0 16 -9 21 -19z m-109 -37 c0 -3 -6 -12 -14
-19 -17 -17 -30 -7 -15 12 12 13 29 18 29 7z"/>
<path d="M4906 4152 c-3 -5 -14 -49 -25 -98 -21 -93 -25 -117 -46 -246 -3 -18
-10 -57 -15 -87 -10 -56 -13 -108 -6 -100 2 2 7 18 9 34 3 17 18 86 32 155 15
69 29 136 31 150 2 14 7 36 9 50 26 130 29 171 11 142z"/>
<path d="M3998 4091 c-3 -17 -1 -31 4 -31 4 0 11 0 16 0 9 1 3 42 -8 53 -4 5
-10 -5 -12 -22z"/>
<path d="M6525 4069 c-4 -6 -5 -13 -2 -16 7 -7 27 6 27 18 0 12 -17 12 -25 -2z"/>
<path d="M3109 4066 c-2 -2 -29 -6 -60 -8 -30 -3 -60 -8 -67 -12 -6 -3 -25 -4
-41 -1 -17 3 -52 0 -78 -6 -79 -18 -82 -18 -89 -8 -4 6 -10 6 -19 -1 -7 -6
-17 -10 -21 -8 -22 6 -179 -14 -185 -23 -4 -8 -13 -8 -27 0 -29 15 -52 14 -73
-5 -15 -13 -16 -21 -7 -38 6 -11 17 -25 25 -29 11 -7 10 -11 -3 -25 -16 -15
-15 -17 4 -30 17 -11 20 -18 11 -34 -7 -14 -7 -23 2 -34 6 -8 9 -17 6 -21 -11
-10 14 -33 35 -33 11 0 22 9 25 20 6 24 16 25 33 5 17 -21 51 -20 43 1 -4 12
-2 15 8 12 8 -3 13 -13 11 -22 -2 -10 2 -34 9 -54 7 -20 14 -48 14 -62 1 -14
4 -32 7 -40 3 -8 10 -30 16 -48 6 -19 8 -40 6 -47 -3 -8 -2 -20 2 -27 9 -14
10 -19 12 -56 1 -13 13 -34 27 -48 20 -20 22 -26 10 -30 -14 -6 -14 -16 -2
-77 2 -13 -41 -24 -99 -26 -22 0 -43 -3 -46 -6 -8 -8 13 -85 22 -85 4 0 5 -11
3 -24 -3 -13 0 -27 6 -30 6 -4 11 -26 11 -48 0 -23 7 -49 16 -59 14 -15 19
-15 62 -3 32 10 55 12 73 5 15 -5 30 -7 33 -4 3 3 36 8 73 10 120 6 158 12
180 26 7 4 21 4 30 -2 22 -11 139 10 126 23 -4 5 14 6 43 2 54 -7 70 -1 53 21
-9 10 -8 13 1 13 6 0 14 -9 17 -20 6 -23 29 -21 26 1 -1 8 -11 58 -23 111 -26
116 -37 127 -121 121 l-57 -4 -12 51 c-9 36 -23 62 -49 87 -35 35 -35 36 -10
30 26 -7 27 -6 19 29 -5 20 -11 38 -13 41 -10 9 -28 -8 -21 -20 3 -7 -2 -3
-10 8 -20 24 -16 40 10 40 11 1 18 7 15 15 -1 8 -4 24 -6 35 -8 47 -15 70 -24
73 -6 2 -7 10 -4 18 3 8 -12 33 -36 59 -48 53 -54 75 -10 44 30 -21 31 -21 63
-4 24 13 37 15 52 8 19 -10 42 -10 69 1 11 4 10 17 -6 68 -10 35 -19 75 -19
90 0 15 -5 40 -12 55 -7 15 -12 29 -13 29 -1 5 -42 13 -46 10z m-459 -86 c0
-5 -4 -10 -9 -10 -6 0 -13 5 -16 10 -3 6 1 10 9 10 9 0 16 -4 16 -10z m347 4
c-3 -3 -12 -4 -19 -1 -8 3 -5 6 6 6 11 1 17 -2 13 -5z m-114 -29 c-5 -16 -34
-20 -47 -8 -8 8 35 33 46 27 4 -3 5 -11 1 -19z m-250 -101 c-15 -24 -33 -30
-47 -17 -4 4 3 15 15 24 l22 17 -21 6 c-12 4 -22 11 -22 17 0 5 15 1 34 -8 33
-15 34 -17 19 -39z m420 29 c-4 -11 -3 -14 5 -9 7 4 12 1 12 -8 0 -21 -3 -20
-28 9 -21 24 -21 25 -2 25 14 0 18 -5 13 -17z m-248 -23 c3 -5 1 -10 -4 -10
-6 0 -11 5 -11 10 0 6 2 10 4 10 3 0 8 -4 11 -10z m152 4 c-3 -3 -12 -4 -19
-1 -8 3 -5 6 6 6 11 1 17 -2 13 -5z m90 -19 c3 -9 3 -19 -1 -22 -8 -9 -37 18
-30 28 8 14 24 11 31 -6z m65 -7 c-12 -12 -35 -1 -27 12 3 5 13 6 21 3 10 -4
12 -9 6 -15z m-552 -14 c0 -9 -7 -14 -17 -12 -25 5 -28 28 -4 28 12 0 21 -6
21 -16z m119 7 c8 -5 9 -11 3 -15 -5 -3 -15 1 -22 9 -14 16 -3 20 19 6z m261
-31 c0 -5 -10 -10 -22 -10 -19 0 -20 2 -8 10 19 13 30 13 30 0z m-72 -41 c-2
-6 -8 -10 -13 -10 -5 0 -11 4 -13 10 -2 6 4 11 13 11 9 0 15 -5 13 -11z m145
-24 c4 -8 3 -16 -1 -19 -13 -8 -35 11 -28 23 10 15 23 14 29 -4z m52 -115 c-3
-5 -13 -10 -21 -10 -8 0 -14 5 -14 10 0 6 9 10 21 10 11 0 17 -4 14 -10z
m-255 -30 c0 -5 -2 -10 -4 -10 -3 0 -8 5 -11 10 -3 6 -1 10 4 10 6 0 11 -4 11
-10z m60 -10 c0 -5 -5 -10 -11 -10 -5 0 -7 5 -4 10 3 6 8 10 11 10 2 0 4 -4 4
-10z m83 -33 c-9 -16 -26 12 -18 30 7 17 8 17 15 -2 4 -11 5 -24 3 -28z m-33
-37 c0 -5 -4 -10 -9 -10 -6 0 -13 5 -16 10 -3 6 1 10 9 10 9 0 16 -4 16 -10z
m80 -9 c7 -14 6 -19 -3 -17 -32 5 -52 36 -22 36 8 0 19 -9 25 -19z m-185 -21
c3 -5 1 -10 -4 -10 -6 0 -11 5 -11 10 0 6 2 10 4 10 3 0 8 -4 11 -10z m245
-31 c0 -6 -4 -7 -10 -4 -5 3 -10 11 -10 16 0 6 5 7 10 4 6 -3 10 -11 10 -16z
m-270 -25 c0 -8 -4 -12 -10 -9 -5 3 -10 10 -10 16 0 5 5 9 10 9 6 0 10 -7 10
-16z m80 1 c0 -9 -6 -12 -15 -9 -8 4 -12 10 -9 15 8 14 24 10 24 -6z m107 -61
c-3 -3 -12 -4 -19 -1 -8 3 -5 6 6 6 11 1 17 -2 13 -5z m133 -115 c0 -5 -4 -9
-10 -9 -5 0 -10 7 -10 16 0 8 5 12 10 9 6 -3 10 -10 10 -16z m-380 -149 c0 -5
-4 -10 -10 -10 -5 0 -10 5 -10 10 0 6 5 10 10 10 6 0 10 -4 10 -10z m455 -20
c3 -5 -1 -10 -10 -10 -9 0 -13 5 -10 10 3 6 8 10 10 10 2 0 7 -4 10 -10z
m-503 -42 c-9 -9 -15 -9 -24 0 -9 9 -7 12 12 12 19 0 21 -3 12 -12z m78 -2 c0
-3 -4 -8 -10 -11 -5 -3 -10 -1 -10 4 0 6 5 11 10 11 6 0 10 -2 10 -4z"/>
<path d="M3266 4021 c-23 -43 -20 -83 14 -212 35 -137 46 -149 131 -149 58 0
59 0 77 -39 11 -21 57 -92 104 -157 47 -66 93 -136 102 -157 9 -22 29 -55 45
-75 16 -21 49 -72 75 -114 26 -42 68 -100 93 -128 l47 -52 70 7 c72 7 102 9
255 19 168 11 232 32 251 82 22 56 15 59 -88 39 -12 -2 -61 -6 -109 -9 -48 -4
-97 -8 -108 -10 -11 -2 -63 -7 -114 -10 -52 -4 -98 -9 -102 -12 -7 -4 -72 60
-106 106 -11 14 -37 57 -60 95 -23 39 -52 82 -64 96 -13 14 -40 55 -59 93 -19
37 -64 106 -100 155 -36 48 -76 109 -89 135 l-24 47 -59 -2 c-73 -2 -92 13
-117 96 -16 50 -33 131 -36 167 -1 21 -16 16 -29 -11z"/>
<path d="M2209 3976 c-3 -3 -65 -8 -139 -11 -171 -8 -172 -8 -188 -19 -7 -4
-23 -6 -35 -3 -12 3 -31 1 -42 -3 -19 -8 -19 -9 2 -9 32 -1 38 -19 8 -27 -16
-4 -25 -13 -25 -25 0 -10 -7 -19 -15 -19 -8 0 -15 9 -15 19 0 11 -5 23 -12 27
-7 5 -3 11 13 17 22 9 22 10 5 15 -12 2 -26 -4 -34 -14 -10 -14 -16 -15 -19
-6 -8 21 -23 13 -23 -13 0 -14 9 -30 20 -37 22 -14 27 -44 8 -51 -10 -3 -10
-7 -1 -19 7 -8 9 -18 5 -23 -4 -4 5 -5 19 -2 18 5 31 2 39 -8 7 -8 19 -15 26
-15 8 0 14 -4 14 -9 0 -9 -11 -9 -72 4 -24 6 -26 4 -21 -17 8 -34 31 -50 55
-37 11 6 38 7 66 3 45 -8 53 -8 87 -5 22 2 18 19 -6 26 -11 4 -18 9 -15 12 2
3 21 0 41 -7 l37 -12 -23 -24 c-15 -17 -29 -22 -42 -18 -18 6 -20 3 -14 -38 4
-27 2 -49 -5 -56 -6 -6 -11 -49 -12 -96 -1 -69 1 -85 12 -81 7 3 21 -2 29 -11
10 -9 19 -12 25 -6 10 10 56 4 64 -9 3 -5 -13 -9 -35 -9 -31 0 -41 -4 -46 -20
-7 -22 -31 -27 -38 -7 -4 10 -7 10 -18 0 -11 -11 -10 -13 4 -13 9 0 17 -7 17
-15 0 -9 -9 -15 -24 -15 -19 0 -23 -4 -19 -20 3 -11 9 -20 14 -20 5 0 0 -15
-11 -32 -11 -18 -20 -41 -20 -50 0 -10 -7 -18 -15 -18 -8 0 -15 5 -15 10 0 23
-71 121 -95 132 -19 9 -22 14 -13 25 14 17 13 17 -45 40 -52 20 -63 40 -20 35
30 -4 27 1 -26 68 -20 24 -44 60 -55 80 -10 19 -32 52 -48 72 l-29 37 23 6
c13 3 38 7 56 9 19 2 38 8 42 12 11 11 1 54 -12 54 -5 0 -8 8 -6 18 3 19 -33
72 -50 72 -5 0 -15 7 -22 15 -9 10 -9 15 -1 15 6 0 11 5 11 10 0 6 -8 10 -18
10 -10 0 -23 5 -30 12 -18 18 -387 11 -428 -9 -10 -5 -45 -8 -76 -8 -32 0 -58
-4 -59 -10 0 -5 -2 -19 -4 -30 -2 -11 3 -40 11 -64 8 -24 16 -60 18 -80 2 -20
7 -44 11 -53 10 -25 51 -23 58 2 6 23 27 27 27 6 0 -9 7 -12 19 -9 16 4 27 -7
53 -48 58 -95 186 -283 210 -309 13 -14 30 -41 38 -60 21 -52 40 -79 61 -85
10 -4 19 -13 19 -21 0 -21 44 -105 69 -131 13 -14 28 -20 39 -17 12 4 13 3 4
-3 -9 -7 -10 -16 -3 -36 8 -21 17 -27 41 -27 17 0 33 6 36 14 4 11 12 12 27 7
12 -5 58 -7 102 -5 81 4 102 6 165 17 19 4 55 9 79 12 25 3 49 9 54 14 11 11
35 109 43 177 6 47 4 52 -17 57 l-23 6 28 22 c15 11 26 29 24 38 -1 9 1 22 6
29 9 15 15 55 19 117 1 22 5 42 8 45 3 3 10 37 17 75 32 199 38 209 127 219
15 2 5 86 -13 121 -16 30 -21 47 -25 95 -2 22 -25 38 -38 26z m-134 -86 c3 -5
-3 -10 -15 -10 -12 0 -18 5 -15 10 3 6 10 10 15 10 5 0 12 -4 15 -10z m-656
-36 c2 -10 0 -16 -4 -12 -4 4 -16 3 -27 -3 -28 -15 -35 -3 -13 21 22 24 38 21
44 -6z m447 -8 c10 -8 17 -16 14 -19 -8 -8 -50 11 -50 23 0 14 13 13 36 -4z
m-366 -6 c0 -5 -7 -7 -15 -4 -8 4 -15 8 -15 10 0 2 7 4 15 4 8 0 15 -4 15 -10z
m290 0 c0 -5 -7 -10 -16 -10 -8 0 -12 5 -9 10 3 6 10 10 16 10 5 0 9 -4 9 -10z
m-670 -31 c0 -5 -4 -9 -10 -9 -5 0 -10 7 -10 16 0 8 5 12 10 9 6 -3 10 -10 10
-16z m864 -10 c-3 -5 -10 -7 -15 -3 -5 3 -7 10 -3 15 3 5 10 7 15 3 5 -3 7
-10 3 -15z m-799 1 c3 -5 2 -10 -4 -10 -5 0 -13 5 -16 10 -3 6 -2 10 4 10 5 0
13 -4 16 -10z m55 0 c0 -5 -4 -10 -10 -10 -5 0 -10 5 -10 10 0 6 5 10 10 10 6
0 10 -4 10 -10z m910 6 c0 -3 -4 -8 -10 -11 -5 -3 -10 -1 -10 4 0 6 5 11 10
11 6 0 10 -2 10 -4z m66 -12 c-3 -9 -6 -18 -6 -20 0 -7 -36 -4 -44 3 -3 4 4
13 16 20 31 17 41 16 34 -3z m-765 -5 c36 -11 95 -59 72 -59 -5 0 -34 13 -63
29 -44 24 -57 27 -77 18 -25 -11 -39 -5 -28 12 8 14 48 14 96 0z m-31 -42 c0
-5 -4 -5 -10 -2 -5 3 -10 14 -10 23 0 15 2 15 10 2 5 -8 10 -19 10 -23z m-278
11 c-7 -7 -12 -21 -12 -32 0 -17 -2 -18 -10 -6 -17 27 -12 50 12 50 17 0 19
-3 10 -12z m-82 -2 c0 -2 -7 -6 -15 -10 -8 -3 -15 -1 -15 4 0 6 7 10 15 10 8
0 15 -2 15 -4z m215 -36 c3 -5 -1 -10 -9 -10 -9 0 -16 5 -16 10 0 6 4 10 9 10
6 0 13 -4 16 -10z m200 -9 c3 -5 1 -12 -5 -16 -5 -3 -10 1 -10 9 0 18 6 21 15
7z m-272 -16 c1 -5 -6 -11 -15 -13 -11 -2 -18 3 -18 13 0 17 30 18 33 0z m167
-5 c0 -5 -4 -10 -9 -10 -6 0 -13 5 -16 10 -3 6 1 10 9 10 9 0 16 -4 16 -10z
m765 0 c3 -5 1 -10 -4 -10 -6 0 -11 5 -11 10 0 6 2 10 4 10 3 0 8 -4 11 -10z
m-115 -41 c0 -4 -7 -6 -15 -3 -8 4 -15 10 -15 15 0 4 7 6 15 3 8 -4 15 -10 15
-15z m-740 -29 c12 -8 11 -10 -7 -10 -12 0 -25 5 -28 10 -8 13 15 13 35 0z
m700 -20 c0 -5 -7 -7 -15 -4 -8 4 -12 10 -9 15 6 11 24 2 24 -11z m-727 -17
c-7 -3 -13 -12 -13 -20 0 -10 -6 -13 -16 -9 -9 3 -20 6 -25 6 -6 0 -7 5 -4 11
4 6 13 8 20 5 8 -3 19 2 26 10 6 8 15 12 18 8 3 -4 0 -9 -6 -11z m126 -46 c8
-11 5 -13 -19 -9 -17 2 -33 8 -36 13 -9 14 42 10 55 -4z m91 -63 c0 -22 -18
-26 -45 -8 -17 11 -22 20 -15 24 17 11 60 -1 60 -16z m523 -27 c7 -18 -57 -21
-72 -4 -8 10 -2 14 28 15 25 2 40 -2 44 -11z m-663 -7 c0 -5 -5 -10 -11 -10
-5 0 -7 5 -4 10 3 6 8 10 11 10 2 0 4 -4 4 -10z m151 -48 c7 -18 5 -22 -11
-22 -15 0 -20 7 -20 26 0 30 19 28 31 -4z m71 -12 c-2 -16 -6 -30 -8 -30 -2 0
-4 14 -4 30 0 17 4 30 8 30 5 0 7 -13 4 -30z m-166 -16 c-4 -9 -9 -15 -11 -12
-3 3 -3 13 1 22 4 9 9 15 11 12 3 -3 3 -13 -1 -22z m164 -55 c-39 -8 -45 -6
-37 15 5 13 12 13 39 4 l33 -12 -35 -7z m440 -43 c0 -3 -4 -8 -10 -11 -5 -3
-10 -1 -10 4 0 6 5 11 10 11 6 0 10 -2 10 -4z m-323 -88 c-7 -4 -19 -8 -27 -8
-12 0 -12 2 -2 9 7 4 12 12 11 17 -4 23 2 26 15 8 11 -14 11 -21 3 -26z m-118
-34 c-17 -21 -31 -17 -19 6 6 11 15 18 21 14 6 -4 6 -11 -2 -20z"/>
<path d="M2346 3948 c-8 -18 -12 -41 -10 -53 2 -11 7 -36 10 -55 3 -19 7 -43
10 -52 3 -9 7 -27 9 -40 29 -148 48 -174 125 -163 60 8 81 -13 85 -87 2 -29
13 -83 24 -120 17 -54 26 -68 41 -68 25 0 26 7 16 80 -8 61 -15 98 -28 145 -5
22 -11 57 -13 77 -2 20 -12 49 -21 63 -15 23 -23 26 -50 22 -29 -5 -99 5 -110
15 -2 3 -6 20 -8 39 -13 88 -48 229 -58 229 -5 0 -15 -14 -22 -32z"/>
<path d="M1557 3878 c-7 -23 -1 -38 14 -38 5 0 9 14 9 30 0 35 -15 40 -23 8z"/>
<path d="M4724 3888 c-22 -5 -41 -14 -41 -21 0 -6 -4 -29 -8 -49 -7 -36 -6
-38 18 -38 14 0 32 7 40 15 17 16 41 80 35 93 -2 4 -21 4 -44 0z"/>
<path d="M4095 3840 c-10 -11 -24 -20 -32 -20 -18 0 -16 -24 5 -48 24 -28 100
-52 130 -41 48 18 55 13 47 -33 -4 -24 -9 -73 -12 -110 -4 -58 -3 -68 11 -68
11 0 16 10 17 33 0 17 2 39 3 47 5 27 19 164 20 200 l1 35 -55 1 c-30 1 -68 7
-83 13 -35 14 -31 15 -52 -9z"/>
<path d="M548 3836 c-31 -7 -69 -11 -85 -9 -15 3 -41 0 -57 -7 -28 -10 -28
-12 -21 -58 4 -26 7 -58 7 -72 -1 -55 13 -63 92 -55 39 4 89 7 111 6 22 -1 49
5 59 12 16 12 17 20 8 81 -10 64 -33 117 -50 115 -4 -1 -32 -7 -64 -13z"/>
<path d="M826 3818 c-24 -36 -22 -103 4 -198 11 -41 22 -86 24 -99 2 -12 15
-35 29 -49 21 -20 36 -26 80 -27 56 -1 87 -16 87 -42 0 -8 42 -74 94 -146 52
-73 101 -148 109 -167 8 -19 29 -55 48 -80 19 -25 53 -77 76 -116 57 -96 121
-166 153 -166 26 -1 149 8 237 18 28 3 82 7 120 9 111 7 164 25 190 64 13 19
23 43 23 53 0 16 -5 19 -27 14 -67 -15 -82 -17 -158 -21 -44 -3 -91 -7 -105
-9 -14 -3 -61 -7 -105 -11 -44 -3 -97 -8 -117 -10 -35 -4 -41 0 -88 53 -27 31
-72 94 -99 140 -27 45 -63 98 -80 118 -17 19 -31 40 -31 46 0 16 -67 123 -124
197 -27 36 -62 88 -77 115 l-27 51 -59 0 c-35 0 -67 6 -76 13 -20 17 -46 93
-67 197 l-16 80 -18 -27z"/>
<path d="M282 3763 c-25 -49 -21 -145 10 -228 17 -45 58 -85 87 -85 l26 0 0
-138 c0 -143 4 -187 30 -387 21 -156 32 -202 56 -241 25 -41 37 -45 117 -39
37 3 94 7 128 9 85 7 110 21 130 73 9 24 15 45 13 47 -2 2 -31 0 -63 -5 -33
-4 -103 -10 -156 -14 -118 -7 -125 -2 -135 100 -4 39 -9 72 -10 75 -2 3 -6 30
-10 60 -3 30 -11 84 -16 120 -6 36 -12 79 -15 95 -5 36 -5 277 0 323 4 32 -1
36 -38 32 -62 -6 -89 31 -116 158 -13 64 -23 75 -38 45z"/>
<path d="M3148 3752 c-21 -4 -22 -13 -7 -65 9 -33 14 -38 36 -35 29 3 59 38
69 81 6 28 6 28 -37 25 -24 -1 -52 -4 -61 -6z"/>
<path d="M2271 3671 c-32 -9 -58 -86 -34 -100 34 -19 71 16 87 82 7 29 -2 32
-53 18z"/>
<path d="M1664 3635 c-3 -7 -19 -19 -35 -25 -16 -7 -29 -15 -29 -19 1 -19 45
-54 85 -67 38 -14 51 -14 76 -3 25 10 32 10 39 -1 5 -8 7 -17 4 -21 -3 -6 -16
-127 -16 -159 -1 -45 26 -54 28 -9 3 68 22 222 30 252 9 30 -13 47 -55 41 -21
-3 -56 1 -80 9 -35 12 -43 13 -47 2z"/>
<path d="M4787 3565 c-19 -64 -10 -79 14 -25 13 28 16 47 10 58 -7 13 -12 5
-24 -33z"/>
<path d="M5367 3594 c-1 -1 -31 -5 -67 -8 -36 -4 -72 -14 -80 -21 -12 -13 -12
-15 5 -16 37 -2 88 -8 110 -13 13 -3 37 1 54 10 18 9 43 14 57 11 29 -5 40 8
23 29 -8 10 -27 14 -56 13 -24 -2 -44 -4 -46 -5z"/>
<path d="M4330 3580 c-9 -6 -10 -10 -3 -10 6 0 15 5 18 10 8 12 4 12 -15 0z"/>
<path d="M4335 3550 c-8 -13 -1 -24 14 -19 6 3 7 10 2 18 -6 10 -10 10 -16 1z"/>
<path d="M545 3521 c4 -12 2 -21 -4 -21 -14 0 -14 -83 -1 -96 8 -8 7 -19 -1
-37 -9 -19 -9 -37 -1 -68 7 -29 7 -48 0 -65 -8 -18 -8 -31 1 -51 8 -18 9 -29
1 -37 -13 -13 -13 -29 0 -21 5 3 20 -5 32 -17 13 -13 27 -23 31 -23 15 0 26
-29 15 -42 -8 -10 -5 -13 10 -13 12 0 24 -5 27 -10 4 -6 10 -8 15 -5 14 9 72
-24 67 -38 -2 -7 -20 -12 -41 -12 -30 0 -36 -3 -32 -17 6 -25 -6 -23 -57 10
-36 23 -42 30 -30 40 17 16 17 62 0 62 -31 0 -47 -133 -16 -136 8 -1 21 -2 30
-3 8 0 24 -8 35 -15 18 -14 18 -15 -13 -26 -36 -13 -45 -47 -18 -70 21 -17 85
5 85 30 0 10 7 25 15 34 8 8 15 17 15 20 0 3 -7 6 -15 6 -8 0 -15 4 -15 9 0 5
8 8 18 6 9 -2 20 -4 25 -4 11 -1 9 -49 -3 -56 -5 -3 -15 -15 -20 -26 -10 -17
-7 -19 20 -19 17 0 29 4 26 9 -9 14 17 19 36 7 20 -12 25 -9 30 19 2 16 -2 19
-19 18 -27 -3 -28 0 -7 33 10 14 23 23 30 20 16 -6 19 15 5 30 -5 5 -11 37
-14 71 -3 35 -8 67 -11 72 -3 5 -26 12 -51 16 -59 8 -114 32 -122 51 -10 27 4
25 51 -6 80 -54 113 -13 62 76 -13 23 -30 65 -37 94 -7 28 -24 63 -36 76 -13
14 -21 30 -17 36 10 15 -28 78 -46 75 -8 -1 -15 5 -15 13 0 8 -11 16 -23 18
-20 3 -23 0 -17 -17z m195 -376 c0 -8 -2 -15 -4 -15 -2 0 -6 7 -10 15 -3 8 -1
15 4 15 6 0 10 -7 10 -15z"/>
<path d="M6555 3521 c-2 -1 -29 -3 -61 -2 -49 0 -102 -17 -90 -30 3 -2 7 -27
10 -54 5 -58 13 -83 33 -106 11 -14 22 -15 56 -7 23 5 73 11 110 12 38 2 73 8
79 14 7 7 7 26 -1 62 -6 28 -9 55 -6 60 3 5 1 20 -5 35 -9 24 -13 26 -66 23
-30 -2 -57 -5 -59 -7z m49 -67 c10 -27 7 -34 -16 -34 -16 0 -19 3 -10 8 7 5
10 16 6 25 -3 9 -2 17 4 17 5 0 13 -7 16 -16z m-117 -59 c-4 -8 -14 -15 -23
-15 -16 0 -16 2 1 20 20 22 31 20 22 -5z"/>
<path d="M5425 3490 c-3 -5 1 -10 10 -10 9 0 13 5 10 10 -3 6 -8 10 -10 10 -2
0 -7 -4 -10 -10z"/>
<path d="M6316 3448 c-13 -29 -14 -89 -3 -138 2 -8 7 -31 11 -51 4 -21 20 -52
36 -70 26 -32 31 -34 86 -32 101 4 206 14 230 23 27 10 50 43 60 84 l7 29 -44
-7 c-24 -3 -71 -8 -104 -11 -33 -3 -84 -7 -113 -10 -47 -5 -54 -3 -76 20 -23
25 -56 120 -56 163 0 35 -20 35 -34 0z"/>
<path d="M4624 3384 c-14 -33 -15 -48 -5 -95 6 -31 14 -76 17 -100 12 -94 48
-178 76 -180 7 0 20 -2 29 -4 8 -1 40 1 70 6 29 5 88 11 129 13 41 3 127 10
190 16 187 19 247 25 391 35 42 2 83 7 90 10 8 2 52 6 99 9 159 10 359 26 385
31 11 3 33 7 49 10 37 6 73 41 85 83 11 37 7 38 -78 22 -28 -5 -82 -12 -119
-15 -37 -3 -80 -7 -97 -10 -16 -2 -82 -7 -145 -10 -63 -4 -126 -8 -140 -10
-58 -10 -139 -18 -200 -20 -36 -2 -90 -6 -120 -9 -30 -4 -71 -8 -90 -10 -55
-6 -210 -19 -260 -21 -25 -1 -65 -5 -90 -8 -112 -16 -127 -16 -148 -1 -23 16
-51 100 -73 214 -7 36 -16 69 -21 74 -4 5 -15 -8 -24 -30z"/>
<path d="M1880 3359 c0 -5 5 -7 10 -4 6 3 10 8 10 11 0 2 -4 4 -10 4 -5 0 -10
-5 -10 -11z"/>
<path d="M5653 3263 c-20 -7 -15 -19 7 -19 11 0 20 4 20 8 0 10 -13 16 -27 11z"/>
<path d="M2513 3208 c-21 -43 -23 -60 -14 -97 6 -20 12 -47 14 -61 19 -107 43
-193 59 -210 21 -23 62 -25 149 -11 30 5 99 12 154 16 184 11 206 13 228 18
12 3 71 9 131 12 138 9 152 17 177 98 8 27 7 28 -19 23 -30 -6 -103 -13 -231
-22 -46 -3 -93 -8 -105 -10 -11 -2 -73 -6 -136 -10 -63 -3 -121 -7 -128 -10
-7 -2 -49 -7 -93 -10 l-79 -7 -15 37 c-9 20 -23 64 -31 96 -15 58 -17 70 -30
138 -7 38 -16 41 -31 10z"/>
</g>
</svg>
