<?xml version="1.0" standalone="no"?>
<!DOCTYPE svg PUBLIC "-//W3C//DTD SVG 20010904//EN"
 "http://www.w3.org/TR/2001/REC-SVG-20010904/DTD/svg10.dtd">
<svg version="1.0" xmlns="http://www.w3.org/2000/svg"
 width="600.000000pt" height="600.000000pt" viewBox="0 0 600.000000 600.000000"
 preserveAspectRatio="xMidYMid meet">
<metadata>
Created by potrace 1.11, written by Peter Selinger 2001-2013
</metadata>
<g transform="translate(0.000000,600.000000) scale(0.100000,-0.100000)"
fill="#000000" stroke="none">
<path d="M5097 5893 c-26 -58 -46 -107 -44 -110 2 -2 53 1 113 6 60 6 147 13
194 17 47 3 122 9 168 13 45 4 82 6 82 5 0 -1 -52 -122 -114 -270 -63 -148
-112 -272 -108 -275 7 -6 541 -59 590 -59 l22 0 0 390 0 390 -427 0 -428 0
-48 -107z"/>
<path d="M0 4935 c0 -39 0 -39 16 -16 15 21 15 24 0 39 -15 15 -16 13 -16 -23z"/>
<path d="M1 3808 c-1 -500 1 -908 3 -908 4 0 170 196 231 271 16 21 81 98 143
173 61 74 112 137 112 140 0 4 -55 83 -122 177 -68 93 -146 203 -175 243 l-52
74 27 39 c45 61 44 62 -7 34 -27 -14 -51 -24 -54 -21 -2 3 -26 158 -54 345
l-51 340 -1 -907z"/>
<path d="M185 2710 c-99 -10 -181 -18 -182 -19 -2 -1 -3 -606 -3 -1346 l0
-1345 3000 0 3000 0 0 360 c0 198 -2 360 -4 360 -3 0 -35 -55 -72 -122 -83
-151 -119 -188 -177 -187 -23 0 -205 22 -405 47 l-363 47 -48 145 -47 145 -19
-52 c-20 -55 -35 -69 -35 -32 0 18 -3 19 -15 9 -15 -13 -71 14 -374 182 -68
37 -132 68 -141 68 -9 0 -67 -18 -128 -40 -62 -22 -112 -37 -112 -34 0 3 37
53 81 111 45 58 78 108 73 112 -5 3 -10 13 -12 21 -3 12 -84 160 -98 179 -8
10 -109 -27 -209 -76 -109 -53 -109 -54 -125 -33 -15 20 -18 21 -155 7 l-139
-13 -138 82 -137 81 -88 7 c-247 19 -355 25 -420 26 -43 0 -73 4 -73 10 0 6
13 37 30 70 17 33 30 62 30 65 0 12 -127 -9 -150 -25 -14 -10 -92 -39 -175
-66 -123 -39 -165 -48 -232 -49 -45 -1 -87 2 -94 6 -6 3 -33 46 -59 94 -41 76
-49 85 -58 69 -10 -18 -12 -18 -44 6 -18 13 -39 23 -48 23 -8 -1 -88 69 -178
155 l-162 157 -39 128 c-22 71 -41 131 -44 133 -2 2 -77 -20 -167 -49 l-162
-53 -11 23 c-13 30 -21 29 -98 -6 l-64 -30 -46 93 -46 93 -27 -14 c-15 -8 -29
-13 -30 -11 -1 2 -7 15 -13 29 -8 19 -22 28 -46 33 -33 6 -37 11 -62 81 -15
41 -29 75 -30 75 -2 0 -20 -27 -41 -60 -38 -59 -54 -72 -54 -47 -1 6 -6 25
-13 41 l-13 29 -63 -92 c-34 -50 -66 -89 -71 -86 -5 3 -14 22 -21 42 -11 34
-13 35 -25 18 -8 -10 -14 -16 -14 -13 0 8 51 130 100 236 l42 94 -12 64 c-9
49 -16 64 -29 63 -9 -1 -97 -10 -196 -19z m3881 -1482 c-12 -35 -33 -91 -45
-125 -22 -59 -25 -62 -83 -87 -34 -15 -62 -25 -64 -23 -4 3 206 297 212 297 2
0 -7 -28 -20 -62z"/>
<path d="M5641 1380 c-1 -8 26 -202 59 -430 33 -228 60 -421 60 -429 0 -30 13
1 24 56 11 54 8 77 -61 428 -72 365 -81 405 -82 375z"/>
</g>
</svg>
