<?xml version="1.0" encoding="utf-8"?>
<!-- Generator: Adobe Illustrator 16.0.4, SVG Export Plug-In . SVG Version: 6.00 Build 0)  -->
<!DOCTYPE svg PUBLIC "-//W3C//DTD SVG 1.1//EN" "http://www.w3.org/Graphics/SVG/1.1/DTD/svg11.dtd">
<svg version="1.1" id="Layer_1" xmlns="http://www.w3.org/2000/svg" xmlns:xlink="http://www.w3.org/1999/xlink" x="0px" y="0px"
	 width="72px" height="72px" viewBox="0 0 72 72" style="enable-background:new 0 0 72 72;" xml:space="preserve">
<style type="text/css">
<![CDATA[
	.st0{display:inline;fill:#EF4136;}
	.st1{display:inline;fill:#8DC63F;}
	.st2{display:inline;fill:#F7941E;}
	.st3{display:inline;fill:#9E1F63;}
	.st4{fill:#FFDE17;}
	.st5{display:inline;fill:#00A79D;}
	.st6{display:none;}
]]>
</style>
<g id="presentations">
	<path class="st4" d="M65.7,27.3c0.2-2.4,1.4-3.8,3.6-4.3C69.2,9.8,68,3.2,65.7,3.2L36.9,2.7l-8.6,1.9C28.4,2.7,24,1.2,14.9,0
		c-5,2.8-8.5,4.2-10.3,4.2L4.5,6.5c-0.4,6.2-0.4,14.2,0,24.1l-1.9,4.3c1.7,19.2,5,28.8,10,28.9c2.2-1,11.9-2.3,29.1-3.9
		c-0.1,1.5,2.6,3,8.2,4.5c2.7-1.3,8.4-2.7,17.1-4.1C68.3,39.1,67.9,28,65.7,27.3z M52.2,54.9l-15.6-8.2L21,54.9l3-17.3L11.4,25.3
		l17.4-2.5L36.6,7l7.8,15.8l17.4,2.5L49.2,37.5L52.2,54.9z"/>
</g>
<g id="films" class="st6">
	<path class="st2" d="M68.3,12.3C65.4,7.3,64,3.8,64.1,2l-2.3-0.2c-6.2-0.4-14.2-0.4-24.1,0L33.3,0C14.1,1.7,4.5,5,4.4,10
		c1,2.2,2.3,11.9,3.9,29.1c-1.5-0.1-3,2.6-4.5,8.2c1.3,2.7,2.7,8.4,4.1,17.1c21.4,1.4,32.4,1,33.1-1.2c2.4,0.2,3.8,1.4,4.3,3.6
		c13.2-0.2,19.8-1.4,19.8-3.7l0.5-28.8l-1.9-8.6C65.5,25.8,67.1,21.3,68.3,12.3z M25.3,57.5V11l28.1,22.9L25.3,57.5z"/>
</g>
<g id="books" class="st6">
	<path class="st5" d="M69.4,29.6c-1.7-19.2-5-28.8-10-28.9c-2.2,1-11.9,2.3-29.1,3.9c0.1-1.5-2.6-3-8.2-4.5c-2.7,1.2-8.4,2.6-17.1,4
		C3.6,25.5,4,36.5,6.2,37.2C6,39.6,4.8,41,2.6,41.5C2.8,54.7,4,61.3,6.3,61.3l28.8,0.5l8.6-1.9c-0.1,1.9,4.3,3.4,13.3,4.6
		c5.1-2.8,8.5-4.2,10.3-4.2l0.2-2.3c0.4-6.2,0.4-14.2,0-24.1L69.4,29.6z M57.1,45.9L36.2,55l-20.9-9.1V14.1l20.9,9.1l20.9-9.1V45.9z
		"/>
</g>
<g id="workshops" class="st6">
	<path class="st1" d="M71.7,20.1c-1.5-2.7-3.1-8.5-4.8-17.2C43.1,1.3,30.8,1.5,30,3.7c-2.7-0.2-4.3-1.4-4.9-3.7
		c-14.7,0-22,1.1-22,3.4L3,32.2l2.3,8.7c-2.1-0.1-3.7,4.3-4.9,13.3c3.2,5.1,4.8,8.6,4.8,10.4l2.6,0.2c6.9,0.5,15.8,0.6,26.9,0.3
		l4.8,1.9c21.4-1.4,32.1-4.6,32.1-9.6c-1.1-2.2-2.7-11.9-4.7-29.2C68.5,28.4,70.1,25.7,71.7,20.1z M56.6,32.8
		c-0.1,1.5-0.4,3.1-1,4.5c-0.5,1.4-1.2,2.8-2.1,4c-0.8,1.2-1.8,2.3-3,3.3c-1.1,0.9-2.3,1.7-3.6,2.3c-1.3,0.6-2.6,1-4,1.3
		c-1.3,0.2-2.7,0.3-4.1,0.2c-1.3-0.1-2.6-0.4-3.9-0.9c-1.2-0.4-2.3-1-3.4-1.8c-1-0.7-1.9-1.6-2.7-2.6c-0.8-0.9-1.4-2-1.9-3.1
		s-0.8-2.2-1-3.4c-0.2-1.1-0.2-2.3-0.1-3.4c0.1-1.1,0.4-2.2,0.8-3.2s0.9-1.9,1.5-2.8c0.6-0.8,1.3-1.6,2.1-2.2
		c0.8-0.6,1.6-1.1,2.5-1.5c0.9-0.4,1.8-0.6,2.7-0.8c0.9-0.1,1.8-0.1,2.7,0c0.8,0.1,1.7,0.3,2.5,0.7c0.8,0.3,1.5,0.7,2.2,1.3
		c0.6,0.5,1.2,1.1,1.7,1.7c0.4,0.6,0.8,1.3,1.1,2c0.3,0.7,0.4,1.4,0.5,2.1c0.1,0.7,0.1,1.4,0,2.1c-0.1,0.6-0.3,1.3-0.6,1.9
		c-0.2,0.5-0.6,1.1-1,1.6c-0.3,0.4-0.8,0.8-1.3,1.2c-0.4,0.3-0.9,0.6-1.4,0.7c-0.4,0.2-1,0.3-1.5,0.3c-0.4,0-0.9,0-1.4-0.1
		c-0.4-0.1-0.8-0.2-1.2-0.4c-0.3-0.2-0.7-0.4-0.9-0.7c-0.2-0.2-0.5-0.5-0.7-0.8c-0.1-0.2-0.3-0.6-0.4-0.9c-0.1-0.2-0.1-0.5-0.1-0.8
		c0-0.2,0-0.4,0.1-0.6c0.5,1.3,1.9,2.1,3.2,1.8c0.4-0.1,0.8-0.2,1.2-0.4c0.3-0.2,0.9-0.7,1.3-1.2c0.2-0.4,0.5-1.1,0.6-1.6
		c0-0.4,0-1.1-0.2-1.7c-0.1-0.4-0.4-1-0.8-1.5c-0.3-0.4-0.8-0.9-1.3-1.2c-0.2-0.1-0.8-0.5-1.6-0.7c-0.6-0.1-1.3-0.2-1.8-0.1
		c-0.6,0.1-1.3,0.2-1.8,0.4c-0.6,0.2-1.2,0.6-1.7,1c-0.5,0.4-1,1-1.4,1.5c-0.4,0.6-0.7,1.3-0.9,1.9c-0.2,0.7-0.3,1.5-0.4,2.2
		c0,0.8,0.1,1.6,0.3,2.3c0.2,0.6,0.4,1.4,1,2.3c0.4,0.7,1,1.4,1.6,2s1.4,1.1,2.2,1.5c0.8,0.4,1.7,0.8,2.6,0.9
		c0.9,0.2,1.9,0.3,2.9,0.2c1-0.1,2-0.3,2.9-0.6c1-0.3,1.9-0.8,2.8-1.4c0.9-0.6,1.7-1.4,2.4-2.2c0.7-0.9,1.3-1.8,1.8-2.8
		c0.5-1,0.8-2.2,1-3.3c0.2-1.2,0.2-2.4,0.1-3.5c-0.1-1.2-0.4-2.4-0.9-3.5C50.3,25.1,49.7,24,49,23c-0.8-1-1.7-2-2.7-2.7
		c-1.1-0.8-2.2-1.5-3.4-2c-1.3-0.5-2.6-0.9-3.9-1c-1.4-0.2-2.8-0.2-4.2,0c-1.4,0.2-2.8,0.6-4.1,1.2c-1.4,0.6-2.6,1.4-3.8,2.3
		c-1.2,1-2.3,2.1-3.1,3.3c-0.9,1.3-1.7,2.6-2.2,4.1c-0.6,1.5-1,3.1-1.1,4.6c-0.2,1.6-0.1,3.3,0.1,4.9c0.3,1.7,0.8,3.3,1.4,4.8
		c0.7,1.6,1.6,3,2.7,4.3c1.1,1.4,2.4,2.5,3.8,3.5c1.5,1,3,1.9,4.7,2.5c1.7,0.6,3.5,1,5.3,1.2c1.9,0.2,3.7,0.1,5.5-0.2
		c1.9-0.3,3.7-0.9,5.4-1.7c0.5-0.2,0.9-0.4,1.3-0.7c-3.9,3.4-9,5.5-14.6,5.5c-3.7,0-7.2-0.9-10.2-2.5c-1.6-1.1-3-2.4-4.3-3.9
		c-1.4-1.6-2.6-3.3-3.5-5.3c-0.9-1.8-1.6-3.8-2-5.9c-0.4-2-0.5-4-0.4-6.1c0.1-2,0.5-4,1.2-5.9c0.6-1.9,1.5-3.6,2.6-5.3
		c1.1-1.6,2.3-3.1,3.8-4.3c1.4-1.2,3-2.3,4.7-3.1c1.7-0.8,3.4-1.4,5.3-1.8c1.6-0.3,3.3-0.4,5-0.3c5.6,0.5,10.6,3.1,14.2,7
		c1,1.2,1.9,2.5,2.6,4c0.7,1.4,1.2,3,1.5,4.6C56.7,29.6,56.7,31.2,56.6,32.8z"/>
</g>
<g id="family" class="st6">
	<path class="st3" d="M67.1,28.6c0.2-2.5,1.4-4,3.8-4.5c-0.2-13.8-1.5-20.7-3.8-20.7L36.9,2.8l-9,2C28,2.8,23.4,1.2,14,0
		C8.7,3,5.1,4.4,3.2,4.4L3,6.8C2.6,13.2,2.6,21.6,3,32l-1.9,4.5c1.7,20.1,5.2,30.2,10.5,30.2c2.3-1,12.4-2.4,30.4-4
		c-0.1,1.6,2.8,3.2,8.6,4.7c2.8-1.4,8.8-2.8,17.8-4.3C69.8,40.9,69.4,29.3,67.1,28.6z M33.5,47.3c0,4.4-3.6,7.9-7.9,7.9h-1.2
		c-4.4,0-7.9-3.6-7.9-7.9V46c0-4.4,3.6-7.9,7.9-7.9h1.2c4.4,0,7.9,3.6,7.9,7.9V47.3z M33.5,21.5c0,4.4-3.6,7.9-7.9,7.9h-1.2
		c-4.4,0-7.9-3.6-7.9-7.9v-1.2c0-4.4,3.6-7.9,7.9-7.9h1.2c4.4,0,7.9,3.6,7.9,7.9V21.5z M57.2,34.4c0,4.4-3.6,7.9-7.9,7.9H48
		c-4.4,0-7.9-3.6-7.9-7.9v-1.2c0-4.4,3.6-7.9,7.9-7.9h1.2c4.4,0,7.9,3.6,7.9,7.9v1.2H57.2z"/>
</g>
<g id="lectures" class="st6">
	<path class="st0" d="M70.5,12.7c-3.1-5.1-4.6-8.6-4.6-10.4l-2.5-0.2c-6.6-0.5-15.3-0.5-26-0.2L32.8,0c-20.6,1.5-31,4.7-31,9.7
		c1.1,2.2,2.6,11.9,4.4,29.2c-1.7-0.1-3.2,2.6-4.8,8.2c1.5,2.7,3,8.4,4.6,17.1c23,1.6,34.9,1.3,35.6-0.9c2.6,0.2,4.1,1.4,4.7,3.7
		c14.2-0.1,21.3-1.2,21.3-3.5l0.2-28.8L65.7,26C67.7,26.1,69.3,21.7,70.5,12.7z M48.3,43.6v8.7c-3-2.8-5.2-4.9-6.8-6.5
		c-1.8,0.3-3.7,0.5-5.6,0.5c-12.2,0-22.1-7-22.1-15.6c0-8.6,9.9-15.6,22.1-15.6S58,22.1,58,30.7C58,36,54.2,40.8,48.3,43.6z"/>
</g>
</svg>
