<?xml version="1.0" encoding="utf-8"?>
<!-- Generator: Adobe Illustrator 19.2.1, SVG Export Plug-In . SVG Version: 6.00 Build 0)  -->
<svg version="1.1" id="Layer_1" xmlns="http://www.w3.org/2000/svg" xmlns:xlink="http://www.w3.org/1999/xlink" x="0px" y="0px"
	 viewBox="0 0 72 72" style="enable-background:new 0 0 72 72;" xml:space="preserve">
<style type="text/css">
	.st0{fill:#EF4136;}
</style>
<g>
	<path class="st0" d="M36,0C16.1,0,0,16.1,0,36s16.1,36,36,36s36-16.1,36-36S55.9,0,36,0z M48.4,46.1v8.7c-3-2.8-5.2-5-6.8-6.5
		c-1.8,0.3-3.7,0.5-5.6,0.5c-12.2,0-22.1-7-22.1-15.6S23.8,17.7,36,17.7s22.1,7,22.1,15.6C58.1,38.6,54.2,43.3,48.4,46.1z"/>
	<g>
		<path class="st0" d="M29,33.2c0,2.2-1.8,4-4,4s-4-1.8-4-4c0-2.2,1.8-4,4-4S29,31,29,33.2z"/>
		<path class="st0" d="M40,33.2c0,2.2-1.8,4-4,4c-2.2,0-4-1.8-4-4c0-2.2,1.8-4,4-4C38.2,29.2,40,31,40,33.2z"/>
		<path class="st0" d="M50.9,33.2c0,2.2-1.8,4-4,4c-2.2,0-4-1.8-4-4c0-2.2,1.8-4,4-4C49.1,29.2,50.9,31,50.9,33.2z"/>
	</g>
</g>
</svg>
